<svg xmlns="http://www.w3.org/2000/svg" viewBox="0 0 215.39 202.19"><defs><style>.cls-1{fill:#d31e1e;}.cls-2{fill:#7aaf00;}.cls-3{fill:#589b00;}.cls-4{fill:#5dad00;}.cls-5{fill:#e83636;}.cls-6{fill:none;stroke:#d31e1e;stroke-miterlimit:10;stroke-width:4px;}</style></defs><title>Fichier 17</title><g id="Calque_2" data-name="Calque 2"><g id="berries_down"><circle class="cls-1" cx="38.97" cy="93.93" r="26.08"/><circle class="cls-1" cx="70.72" cy="75.03" r="26.08"/><circle class="cls-1" cx="106.4" cy="47.46" r="25.58"/></g><g id="leaves"><path class="cls-2" d="M37.91,104.16S81.37,86.77,94.22,73.92s33.64-36.28,42.34-43.46,23.05-11.72,23.05-11.72v7.18s-2.76.84-6.48,2.32c-5.31,2.12-12.58,5.56-16.57,9.78-6.81,7.18-29.11,34.39-37.8,40.82S72.68,97.36,61,101.51s-21.54,7.18-21.54,7.18Z" transform="translate(-6.59)"/><path class="cls-2" d="M137.87,33.55c6.35-7.93,34.2,11.85,44.24,20.53s16.21,23.14,13.36,27.24S180.06,82.75,167.66,75C154.74,66,131.84,41.08,137.87,33.55Z" transform="translate(-6.59)"/><path class="cls-3" d="M145.13,34c32-6,54-5.29,62.28,0s12.09,11.19,9.45,17.13-5.29,5.75-5.29,5.75-5.29-5.81-20-11.51S145.13,34,145.13,34Z" transform="translate(-6.59)"/><path class="cls-4" d="M137.69,27.07c3-10.52,26.07-25.73,35.53-26.75,17.39-1.89,30.37,4.67,37.17,20,2.12,4.78-12.28,2.34-22.57,4.75-8,1.88-21.65,6.62-33,7.75S134.67,37.59,137.69,27.07Z" transform="translate(-6.59)"/></g><g id="berries_up"><circle class="cls-5" cx="116.36" cy="83.75" r="26.08"/><circle class="cls-5" cx="80.55" cy="109.83" r="26.08"/></g><g id="Arrows"><path class="cls-6" d="M98.76,21.88C80.22,6.75,63.52,23.05,65.49,40.67" transform="translate(-6.59)"/><polygon class="cls-1" points="52.88 40.42 61.27 48.95 64.46 37.42 52.88 40.42"/><path class="cls-6" d="M61.06,48.88C50,33.27,27.37,45.31,27.69,61.44" transform="translate(-6.59)"/><polygon class="cls-1" points="15.21 60.99 23.34 69.77 26.88 58.33 15.21 60.99"/></g><g id="Title_below" data-name="Title below"><path class="cls-1" d="M28,154.79a2.84,2.84,0,0,1,1.83,2.44,2.14,2.14,0,0,1-.06.61,2.36,2.36,0,0,1-2.44,1.95,5.14,5.14,0,0,1-.91-.12,24.67,24.67,0,0,0-4-.43,11.47,11.47,0,0,0-7.07,2,6.43,6.43,0,0,0-2.69,5.43V184.5a3.14,3.14,0,0,1-.76,2.26,3.07,3.07,0,0,1-2.29.79,3.14,3.14,0,0,1-2.26-.77,3,3,0,0,1-.79-2.28V157.23A3.11,3.11,0,0,1,7.38,155a3.11,3.11,0,0,1,2.26-.79,2.7,2.7,0,0,1,3,3v1.16A13,13,0,0,1,17.21,155a13.71,13.71,0,0,1,5.73-1.22A10.88,10.88,0,0,1,28,154.79Z" transform="translate(-6.59)"/><path class="cls-1" d="M39.44,186.11a9.28,9.28,0,0,1-3.26-4A14,14,0,0,1,35,176.26V143a3.05,3.05,0,1,1,6.1,0v33.3A7.26,7.26,0,0,0,42,180a2.51,2.51,0,0,0,2.2,1.47h1.52a2.52,2.52,0,0,1,2,.85,3.17,3.17,0,0,1,.77,2.2,2.62,2.62,0,0,1-1.16,2.19,4.93,4.93,0,0,1-3,.86h-.12A8.18,8.18,0,0,1,39.44,186.11Z" transform="translate(-6.59)"/><path class="cls-1" d="M80.49,156.13a15.44,15.44,0,0,1,5.61,6.07,18.12,18.12,0,0,1,2.05,8.63,17.16,17.16,0,0,1-2.2,8.64,16.09,16.09,0,0,1-6.07,6.1,16.92,16.92,0,0,1-8.57,2.22,16.43,16.43,0,0,1-14.55-8.32,17.08,17.08,0,0,1-2.22-8.64V143a3,3,0,0,1,.88-2.26,3.07,3.07,0,0,1,2.23-.85A2.94,2.94,0,0,1,60.76,143v16.47a15,15,0,0,1,5.18-4.09,15.13,15.13,0,0,1,6.59-1.46A14.91,14.91,0,0,1,80.49,156.13Zm-3.66,24.68a10.77,10.77,0,0,0,3.91-4.12,12.07,12.07,0,0,0,1.43-5.86A11.89,11.89,0,0,0,80.74,165a10.83,10.83,0,0,0-3.91-4.09A10.64,10.64,0,0,0,61.92,165a12,12,0,0,0-1.41,5.82,12.17,12.17,0,0,0,1.41,5.86,10.76,10.76,0,0,0,14.91,4.12Z" transform="translate(-6.59)"/><path class="cls-1" d="M126.58,172.27a2.79,2.79,0,0,1-2,.76H101.38a10.71,10.71,0,0,0,3.88,6.89,11.93,11.93,0,0,0,7.83,2.63,11.81,11.81,0,0,0,3.82-.68,11.16,11.16,0,0,0,3.26-1.64,3.14,3.14,0,0,1,2-.67,2.58,2.58,0,0,1,1.83.61,2.64,2.64,0,0,1,1.1,2.07,2.21,2.21,0,0,1-1,1.83,17.19,17.19,0,0,1-5.16,2.69,18.69,18.69,0,0,1-14.85-1.13,15.7,15.7,0,0,1-6.19-6,17,17,0,0,1-2.23-8.73,18,18,0,0,1,2.11-8.75,15.25,15.25,0,0,1,5.85-6,16.75,16.75,0,0,1,8.51-2.16,15.35,15.35,0,0,1,8.11,2.07,13.67,13.67,0,0,1,5.25,5.8,19.09,19.09,0,0,1,1.83,8.54A2.59,2.59,0,0,1,126.58,172.27ZM105,161.62a11,11,0,0,0-3.51,6.53h20.32a10.91,10.91,0,0,0-3.05-6.53,9,9,0,0,0-6.53-2.44A10.58,10.58,0,0,0,105,161.62Z" transform="translate(-6.59)"/><path class="cls-1" d="M156.71,154.79a2.84,2.84,0,0,1,1.83,2.44,2.14,2.14,0,0,1-.06.61,2.36,2.36,0,0,1-2.44,1.95,5.23,5.23,0,0,1-.92-.12,24.46,24.46,0,0,0-4-.43,11.52,11.52,0,0,0-7.08,2,6.43,6.43,0,0,0-2.68,5.43V184.5a3.18,3.18,0,0,1-.76,2.26,3.09,3.09,0,0,1-2.29.79,3.13,3.13,0,0,1-2.26-.77,3,3,0,0,1-.79-2.28V157.23a2.76,2.76,0,0,1,3-3,2.7,2.7,0,0,1,3.05,3v1.16a13,13,0,0,1,4.51-3.36,13.75,13.75,0,0,1,5.74-1.22A10.88,10.88,0,0,1,156.71,154.79Z" transform="translate(-6.59)"/><path class="cls-1" d="M186.35,154.79a2.83,2.83,0,0,1,1.83,2.44,2.14,2.14,0,0,1-.06.61,2.36,2.36,0,0,1-2.44,1.95,5.25,5.25,0,0,1-.91-.12,24.67,24.67,0,0,0-4-.43,11.51,11.51,0,0,0-7.07,2,6.43,6.43,0,0,0-2.69,5.43V184.5a3.14,3.14,0,0,1-.76,2.26,3.69,3.69,0,0,1-4.54,0,3,3,0,0,1-.8-2.28V157.23a2.77,2.77,0,0,1,3.05-3c2,0,3,1,3,3v1.16a13,13,0,0,1,4.52-3.36,13.74,13.74,0,0,1,5.73-1.22A10.82,10.82,0,0,1,186.35,154.79Z" transform="translate(-6.59)"/><path class="cls-1" d="M222,156.86a3.76,3.76,0,0,1-.37,1.47L203,200.3a2.5,2.5,0,0,1-2.38,1.89,3.76,3.76,0,0,1-1.47-.37,2.56,2.56,0,0,1-1.83-2.38,3.29,3.29,0,0,1,.37-1.46l6.1-13.73-13.73-26a2.66,2.66,0,0,1-.3-1.28,2.43,2.43,0,0,1,.49-1.47,3.18,3.18,0,0,1,1.28-1,2.83,2.83,0,0,1,1.22-.25,2.73,2.73,0,0,1,2.56,1.71l11.16,22.2L216.24,156a2.56,2.56,0,0,1,2.38-1.77,3.43,3.43,0,0,1,1.47.31A2.49,2.49,0,0,1,222,156.86Z" transform="translate(-6.59)"/><ellipse class="cls-1" cx="66" cy="170.93" rx="13.36" ry="16.19"/></g></g></svg>