<svg xmlns="http://www.w3.org/2000/svg" viewBox="0 0 337.04 180.5"><defs><style>.cls-1{fill:#d31e1e;}.cls-2{fill:#7aaf00;}.cls-3{fill:#589b00;}.cls-4{fill:#5dad00;}.cls-5{fill:#e83636;}.cls-6{fill:#92522c;}.cls-7{fill:none;stroke:#542d1a;stroke-miterlimit:10;}.cls-8{fill:#542d1a;}.cls-9{fill:#663821;}</style></defs><title>Plan de travail 1</title><g id="Calque_2" data-name="Calque 2"><circle class="cls-1" cx="32.35" cy="122.19" r="26.08"/><circle class="cls-1" cx="63.21" cy="101.27" r="26.08"/><circle class="cls-1" cx="94.96" cy="82.37" r="26.08"/><circle class="cls-1" cx="130.64" cy="54.8" r="25.58"/></g><g id="Calque_3" data-name="Calque 3"><path class="cls-2" d="M55.56,111.5S99,94.11,111.87,81.26,145.51,45,154.2,37.8s23.06-11.72,23.06-11.72v7.18s-2.76.83-6.48,2.32c-5.31,2.12-12.58,5.55-16.58,9.77-6.8,7.19-29.1,34.4-37.79,40.82s-26.08,18.52-37.8,22.68S57.07,116,57.07,116Z"/><path class="cls-2" d="M155.52,40.89c6.35-7.93,34.19,11.85,44.24,20.53S216,84.56,213.12,88.66s-15.41,1.42-27.82-6.28C172.39,73.36,149.49,48.41,155.52,40.89Z"/><path class="cls-3" d="M162.78,41.31c32-6.05,54-5.29,62.28,0s12.09,11.19,9.45,17.12-5.29,5.75-5.29,5.75-5.29-5.8-20-11.5S162.78,41.31,162.78,41.31Z"/><path class="cls-4" d="M155.34,34.41c3-10.53,26.07-25.73,35.53-26.76,17.39-1.89,30.37,4.67,37.17,20,2.12,4.77-12.28,2.34-22.57,4.75-8,1.88-21.65,6.61-33.05,7.75S152.32,44.93,155.34,34.41Z"/></g><g id="Calque_4" data-name="Calque 4"><circle class="cls-5" cx="140.6" cy="91.09" r="26.08"/><circle class="cls-5" cx="104.79" cy="117.17" r="26.08"/><circle class="cls-5" cx="73.17" cy="136.95" r="25.59"/></g><g id="Calque_6" data-name="Calque 6"><ellipse class="cls-6" cx="76.05" cy="150.8" rx="4.61" ry="4.96"/><ellipse class="cls-6" cx="111.78" cy="129.98" rx="4.3" ry="5.03" transform="translate(-52.06 180.41) rotate(-66.41)"/><circle class="cls-6" cx="151.83" cy="83.65" r="5.13"/><ellipse class="cls-6" cx="10.33" cy="132.61" rx="3.31" ry="5.23" transform="translate(-55.57 17.07) rotate(-25.24)"/></g><g id="Calque_5" data-name="Calque 5"><path class="cls-7" d="M116.41,29.21c-19-15.53-36.15,2.09-33.07,20.24"/><polygon class="cls-8" points="78.3 49.41 85.51 56.29 87.87 46.6 78.3 49.41"/><path class="cls-7" d="M78.71,56.22c-11.43-16.08-35.07-2.82-33.28,14"/><polygon class="cls-8" points="40.47 70.12 47.58 77.1 50.07 67.45 40.47 70.12"/><path class="cls-7" d="M43.69,79.38c-13.92-17-38.84-6.6-33.7,14.19"/><polygon class="cls-8" points="4.95 93.83 12.56 100.27 14.34 90.46 4.95 93.83"/><path class="cls-9" d="M296.91,63.61c1.6.85,2.4,1.92,2.4,3.2a2.59,2.59,0,0,1-.08.8,3.1,3.1,0,0,1-3.2,2.56,7.62,7.62,0,0,1-1.2-.16,30.71,30.71,0,0,0-5.2-.56,15.09,15.09,0,0,0-9.28,2.64,8.45,8.45,0,0,0-3.52,7.12v23.36a4.1,4.1,0,0,1-1,3,4,4,0,0,1-3,1,4.14,4.14,0,0,1-3-1,4,4,0,0,1-1-3V66.81a3.63,3.63,0,0,1,4-4q4,0,4,4v1.52a16.82,16.82,0,0,1,5.92-4.4,17.94,17.94,0,0,1,7.52-1.6A14.17,14.17,0,0,1,296.91,63.61Z"/><path class="cls-9" d="M311.91,104.69a12.38,12.38,0,0,1-4.28-5.28,18.61,18.61,0,0,1-1.52-7.64V48.09a4,4,0,1,1,8,0V91.77a9.65,9.65,0,0,0,1.12,4.88,3.3,3.3,0,0,0,2.88,1.92h2a3.3,3.3,0,0,1,2.6,1.12,4.12,4.12,0,0,1,1,2.88,3.42,3.42,0,0,1-1.52,2.88,6.48,6.48,0,0,1-3.92,1.12h-.16A10.79,10.79,0,0,1,311.91,104.69Z"/><path class="cls-9" d="M180.23,132a15.68,15.68,0,0,1,5.71,6.17,18.55,18.55,0,0,1,2.07,8.77,17.44,17.44,0,0,1-2.23,8.77,16.26,16.26,0,0,1-6.17,6.2,17.12,17.12,0,0,1-8.71,2.27,16.85,16.85,0,0,1-8.65-2.27,16.58,16.58,0,0,1-6.13-6.2,17.27,17.27,0,0,1-2.27-8.77V118.66a3.06,3.06,0,0,1,.9-2.3,3.45,3.45,0,0,1,4.56,0,3.11,3.11,0,0,1,.87,2.3V135.4a15.61,15.61,0,0,1,20-3.41Zm-3.72,25.08a10.89,10.89,0,0,0,4-4.19,12.2,12.2,0,0,0,1.46-5.95,12.05,12.05,0,0,0-1.46-5.92,10.85,10.85,0,0,0-4-4.15,11.11,11.11,0,0,0-11.22,0,10.7,10.7,0,0,0-3.94,4.15,12.25,12.25,0,0,0-1.42,5.92,12.4,12.4,0,0,0,1.42,5.95,10.62,10.62,0,0,0,9.55,5.71A10.63,10.63,0,0,0,176.51,157.07Z"/><path class="cls-9" d="M227.07,148.39a2.84,2.84,0,0,1-2,.77H201.47a10.91,10.91,0,0,0,3.94,7,12.13,12.13,0,0,0,8,2.66,12,12,0,0,0,3.88-.68,11.37,11.37,0,0,0,3.31-1.67,3.19,3.19,0,0,1,2.05-.68,2.65,2.65,0,0,1,1.86.62,2.72,2.72,0,0,1,1.12,2.1,2.24,2.24,0,0,1-1,1.86,17,17,0,0,1-5.23,2.73,18.86,18.86,0,0,1-15.1-1.15,15.94,15.94,0,0,1-6.3-6.1A17.47,17.47,0,0,1,195.7,147a18.44,18.44,0,0,1,2.14-8.9,15.46,15.46,0,0,1,5.95-6.13,17,17,0,0,1,8.65-2.2,15.66,15.66,0,0,1,8.25,2.1,14,14,0,0,1,5.33,5.89,19.47,19.47,0,0,1,1.86,8.68A2.6,2.6,0,0,1,227.07,148.39Zm-22-10.82a11.13,11.13,0,0,0-3.56,6.63h20.65a11,11,0,0,0-3.1-6.63,9.09,9.09,0,0,0-6.64-2.48A10.71,10.71,0,0,0,205.09,137.57Z"/><path class="cls-9" d="M257.7,130.62a2.9,2.9,0,0,1,1.86,2.48,2.22,2.22,0,0,1-.06.62,2.4,2.4,0,0,1-2.48,2,4.66,4.66,0,0,1-.93-.13,25.42,25.42,0,0,0-4-.43,11.64,11.64,0,0,0-7.19,2,6.53,6.53,0,0,0-2.73,5.51v18.11a3.15,3.15,0,0,1-.78,2.29,3.06,3.06,0,0,1-2.32.81,3.15,3.15,0,0,1-2.29-.78,3.06,3.06,0,0,1-.81-2.32V133.1A2.82,2.82,0,0,1,239,130c2.07,0,3.1,1,3.1,3.1v1.18a13.2,13.2,0,0,1,4.59-3.41,14,14,0,0,1,5.82-1.24A11.06,11.06,0,0,1,257.7,130.62Z"/><path class="cls-9" d="M287.83,130.62a2.9,2.9,0,0,1,1.86,2.48,2.22,2.22,0,0,1-.06.62,2.4,2.4,0,0,1-2.48,2,4.66,4.66,0,0,1-.93-.13,25.42,25.42,0,0,0-4-.43,11.64,11.64,0,0,0-7.19,2,6.53,6.53,0,0,0-2.73,5.51v18.11a3.19,3.19,0,0,1-.77,2.29,3.1,3.1,0,0,1-2.33.81,3.15,3.15,0,0,1-2.29-.78,3.06,3.06,0,0,1-.81-2.32V133.1a2.82,2.82,0,0,1,3.1-3.1c2.07,0,3.1,1,3.1,3.1v1.18a13.2,13.2,0,0,1,4.59-3.41,14,14,0,0,1,5.83-1.24A11,11,0,0,1,287.83,130.62Z"/><path class="cls-9" d="M324,132.73a3.85,3.85,0,0,1-.37,1.49l-19,42.66a2.55,2.55,0,0,1-2.42,1.92,4,4,0,0,1-1.49-.37,2.61,2.61,0,0,1-1.86-2.42,3.28,3.28,0,0,1,.37-1.49l6.2-14L291.55,134.1a2.64,2.64,0,0,1-.31-1.31,2.47,2.47,0,0,1,.5-1.48,3.23,3.23,0,0,1,1.3-1.06,3.08,3.08,0,0,1,1.24-.25,2.77,2.77,0,0,1,2.6,1.74l11.35,22.57,10-22.51a2.59,2.59,0,0,1,2.42-1.8,3.68,3.68,0,0,1,1.49.31A2.55,2.55,0,0,1,324,132.73Z"/></g></svg>