<svg xmlns="http://www.w3.org/2000/svg" viewBox="0 0 221.98 206.89"><defs><style>.cls-1,.cls-7{fill:#d31e1e;}.cls-2{fill:#7aaf00;}.cls-3{fill:#589b00;}.cls-4{fill:#5dad00;}.cls-5{fill:#e83636;}.cls-6{fill:none;stroke:#d31e1e;stroke-miterlimit:10;}.cls-7{font-size:61px;font-family:Comfortaa-Bold, Comfortaa;font-weight:700;}</style></defs><title>Fichier 11</title><g id="Calque_2" data-name="Calque 2"><g id="Calque_2-2" data-name="Calque 2"><circle class="cls-1" cx="45.56" cy="93.93" r="26.08"/><circle class="cls-1" cx="77.31" cy="75.03" r="26.08"/><circle class="cls-1" cx="112.99" cy="47.46" r="25.58"/><ellipse class="cls-1" cx="72.59" cy="170.93" rx="13.36" ry="16.19"/></g><g id="Calque_3" data-name="Calque 3"><path class="cls-2" d="M37.91,104.16S81.37,86.77,94.22,73.92s33.64-36.28,42.34-43.46,23.05-11.72,23.05-11.72v7.18s-2.76.84-6.48,2.32c-5.31,2.12-12.58,5.56-16.57,9.78-6.81,7.18-29.11,34.39-37.8,40.82S72.68,97.36,61,101.51s-21.54,7.18-21.54,7.18Z"/><path class="cls-2" d="M137.87,33.55c6.35-7.93,34.2,11.85,44.24,20.53s16.21,23.14,13.36,27.24S180.06,82.75,167.66,75C154.74,66,131.84,41.08,137.87,33.55Z"/><path class="cls-3" d="M145.13,34c32-6,54-5.29,62.28,0s12.09,11.19,9.45,17.13-5.29,5.75-5.29,5.75-5.29-5.81-20-11.51S145.13,34,145.13,34Z"/><path class="cls-4" d="M137.69,27.07c3-10.52,26.07-25.73,35.53-26.75,17.39-1.89,30.37,4.67,37.17,20,2.12,4.78-12.28,2.34-22.57,4.75-8,1.88-21.65,6.62-33,7.75S134.67,37.59,137.69,27.07Z"/></g><g id="Calque_4" data-name="Calque 4"><circle class="cls-5" cx="122.95" cy="83.75" r="26.08"/><circle class="cls-5" cx="87.14" cy="109.83" r="26.08"/></g><g id="Calque_5" data-name="Calque 5"><path class="cls-6" d="M98.76,21.88C79.72,6.34,62.61,24,65.69,42.11"/><polygon class="cls-1" points="60.65 42.07 67.86 48.95 70.22 39.27 60.65 42.07"/><path class="cls-6" d="M61.06,48.88C49.63,32.8,26,46.07,27.78,62.91"/><polygon class="cls-1" points="22.82 62.78 29.93 69.77 32.42 60.11 22.82 62.78"/></g><g id="Titre"><text class="cls-7" transform="translate(1.1 187.55)">rlberry</text></g></g></svg>