<svg xmlns="http://www.w3.org/2000/svg" viewBox="0 0 221.98 206.89"><defs><style>.cls-1,.cls-7{fill:#d31e1e;}.cls-2{fill:#7aaf00;}.cls-3{fill:#589b00;}.cls-4{fill:#5dad00;}.cls-5{fill:#e83636;}.cls-6{fill:none;stroke:#d31e1e;stroke-miterlimit:10;stroke-width:4px;}.cls-7{font-size:61px;font-family:Comfortaa-Bold, Comfortaa;font-weight:700;}</style></defs><title>Fichier 19</title><g id="Calque_2" data-name="Calque 2"><g id="berries_down"><circle class="cls-1" cx="45.56" cy="93.93" r="26.08"/><circle class="cls-1" cx="77.31" cy="75.03" r="26.08"/><circle class="cls-1" cx="112.99" cy="47.46" r="25.58"/></g><g id="leaves"><path class="cls-2" d="M56.47,89.71S79.81,78.26,92.7,66.83s25.76-27,34.47-33.4,27.1-11.38,27.1-11.38l0,6.41s-2.76.74-6.49,2.05c-5.31,1.87-14.59,2.91-18.6,6.66-6.83,6.39-25.16,25.25-32.93,32C80.34,82.83,60,93.76,60,93.76Z"/><path class="cls-2" d="M137.87,33.55c6.35-7.93,34.2,11.85,44.24,20.53s16.21,23.14,13.36,27.24S180.06,82.75,167.66,75C154.74,66,131.84,41.08,137.87,33.55Z"/><path class="cls-3" d="M145.13,34c32-6,54-5.29,62.28,0s12.09,11.19,9.45,17.13-5.29,5.75-5.29,5.75-5.29-5.81-20-11.51S145.13,34,145.13,34Z"/><path class="cls-4" d="M137.69,27.07c3-10.52,26.07-25.73,35.53-26.75,17.39-1.89,30.37,4.67,37.17,20,2.12,4.78-12.28,2.34-22.57,4.75-8,1.88-21.65,6.62-33,7.75S134.67,37.59,137.69,27.07Z"/></g><g id="berries_up"><circle class="cls-5" cx="115.58" cy="80.89" r="26.08"/><circle class="cls-5" cx="79.77" cy="106.97" r="26.08"/></g><g id="Arrows"><path class="cls-6" d="M98.76,21.88C80.22,6.75,63.52,23.05,65.49,40.67"/><polygon class="cls-1" points="59.47 40.42 67.86 48.95 71.06 37.42 59.47 40.42"/><path class="cls-6" d="M61.06,48.88C50,33.27,27.37,45.31,27.69,61.44"/><polygon class="cls-1" points="21.8 60.99 29.93 69.77 33.47 58.33 21.8 60.99"/></g><g id="Title_below" data-name="Title below"><text class="cls-7" transform="translate(1.1 187.55)">rlberry</text><ellipse class="cls-1" cx="72.59" cy="170.93" rx="13.36" ry="16.19"/></g></g></svg>