<svg xmlns="http://www.w3.org/2000/svg" viewBox="0 0 636.63 151.07"><defs><style>.cls-1{fill:#d31e1e;}.cls-2{fill:#7aaf00;}.cls-3{fill:#589b00;}.cls-4{fill:#5dad00;}.cls-5{fill:#e83636;}.cls-6{fill:none;stroke:#d31e1e;stroke-miterlimit:10;stroke-width:4px;}</style></defs><title>Fichier 21</title><g id="Calque_2" data-name="Calque 2"><g id="berries_down"><circle class="cls-1" cx="26.08" cy="93.93" r="26.08"/><circle class="cls-1" cx="57.83" cy="75.03" r="26.08"/><circle class="cls-1" cx="93.5" cy="47.46" r="25.58"/></g><g id="leaves"><path class="cls-2" d="M37,89.71S60.32,78.26,73.22,66.83s25.75-27,34.47-33.4,27.09-11.38,27.09-11.38l0,6.41s-2.76.74-6.49,2.05c-5.32,1.87-14.59,2.91-18.6,6.66-6.83,6.39-25.17,25.25-32.93,32C60.85,82.83,40.49,93.76,40.49,93.76Z"/><path class="cls-2" d="M118.38,33.55c6.36-7.93,34.2,11.85,44.25,20.53S178.84,77.22,176,81.32,160.58,82.75,148.17,75C135.26,66,112.36,41.08,118.38,33.55Z"/><path class="cls-3" d="M125.65,34c32-6,54-5.29,62.28,0S200,45.16,197.37,51.1s-5.29,5.75-5.29,5.75-5.29-5.81-20-11.51S125.65,34,125.65,34Z"/><path class="cls-4" d="M118.21,27.07c3-10.52,26.07-25.73,35.53-26.75,17.38-1.89,30.37,4.67,37.17,20,2.12,4.78-12.28,2.34-22.57,4.75-8,1.88-21.65,6.62-33.06,7.75S115.18,37.59,118.21,27.07Z"/></g><g id="berries_up"><circle class="cls-5" cx="96.09" cy="80.89" r="26.08"/><circle class="cls-5" cx="60.28" cy="106.97" r="26.08"/></g><g id="Arrows"><path class="cls-6" d="M79.28,21.88C60.74,6.75,44,23.05,46,40.67"/><polygon class="cls-1" points="39.99 40.42 48.37 48.95 51.57 37.42 39.99 40.42"/><path class="cls-6" d="M41.57,48.88C30.48,33.27,7.88,45.31,8.2,61.44"/><polygon class="cls-1" points="2.31 60.99 10.45 69.77 13.98 58.33 2.31 60.99"/></g><g id="Title_wide" data-name="Title wide"><path class="cls-1" d="M255,57.83q3.6,1.92,3.6,4.8a4.21,4.21,0,0,1-.12,1.2q-1.08,3.84-4.8,3.84a10.11,10.11,0,0,1-1.8-.24,47.3,47.3,0,0,0-7.8-.84q-8.64,0-13.92,4a12.66,12.66,0,0,0-5.28,10.68v35a6.15,6.15,0,0,1-1.5,4.44,6,6,0,0,1-4.5,1.56,6.15,6.15,0,0,1-4.44-1.5,6,6,0,0,1-1.56-4.5V62.63a5.44,5.44,0,0,1,6-6q6,0,6,6v2.28a25.32,25.32,0,0,1,8.88-6.6,26.94,26.94,0,0,1,11.28-2.4Q251.44,55.91,255,57.83Z"/><path class="cls-1" d="M277.54,119.45a18.39,18.39,0,0,1-6.42-7.92,27.78,27.78,0,0,1-2.28-11.46V34.55a6,6,0,1,1,12,0v65.52a14.37,14.37,0,0,0,1.68,7.32q1.68,2.88,4.32,2.88h3a5,5,0,0,1,3.9,1.68,6.24,6.24,0,0,1,1.5,4.32,5.15,5.15,0,0,1-2.28,4.32,9.66,9.66,0,0,1-5.88,1.68h-.24A16.14,16.14,0,0,1,277.54,119.45Z"/><path class="cls-1" d="M358.3,60.47a30.31,30.31,0,0,1,11,11.94,35.82,35.82,0,0,1,4,17,33.82,33.82,0,0,1-4.32,17,31.56,31.56,0,0,1-11.94,12,33.23,33.23,0,0,1-16.86,4.38,32.37,32.37,0,0,1-28.62-16.38,33.46,33.46,0,0,1-4.38-17V34.67A5.89,5.89,0,0,1,309,30.23a6.09,6.09,0,0,1,10.5,4.44v32.4a30.21,30.21,0,0,1,38.82-6.6ZM351.1,109a21.09,21.09,0,0,0,7.68-8.1,23.62,23.62,0,0,0,2.82-11.52,23.28,23.28,0,0,0-2.82-11.46,21.2,21.2,0,0,0-7.68-8,21,21,0,0,0-29.34,8A23.69,23.69,0,0,0,319,89.39a24,24,0,0,0,2.76,11.52A21.16,21.16,0,0,0,351.1,109Z"/><path class="cls-1" d="M449,92.21a5.5,5.5,0,0,1-4,1.5H399.4A21.1,21.1,0,0,0,407,107.27a24.34,24.34,0,0,0,22.91,3.84,22.39,22.39,0,0,0,6.42-3.24,6.25,6.25,0,0,1,4-1.32,5.18,5.18,0,0,1,3.6,1.2,5.27,5.27,0,0,1,2.16,4.08,4.37,4.37,0,0,1-1.92,3.6A33.36,33.36,0,0,1,434,120.71a36.64,36.64,0,0,1-29.22-2.22,30.82,30.82,0,0,1-12.17-11.82,33.5,33.5,0,0,1-4.38-17.16,35.59,35.59,0,0,1,4.13-17.22A30,30,0,0,1,403.9,60.41a32.86,32.86,0,0,1,16.73-4.26,30.16,30.16,0,0,1,16,4.08,26.93,26.93,0,0,1,10.33,11.4,37.59,37.59,0,0,1,3.59,16.8A5,5,0,0,1,449,92.21ZM406.42,71.27a21.5,21.5,0,0,0-6.9,12.84h40q-1.1-8-6-12.84c-3.29-3.2-7.56-4.8-12.85-4.8Q411.87,66.47,406.42,71.27Z"/><path class="cls-1" d="M508.23,57.83q3.6,1.92,3.6,4.8a4.21,4.21,0,0,1-.12,1.2q-1.08,3.84-4.8,3.84a10.11,10.11,0,0,1-1.8-.24,47.3,47.3,0,0,0-7.8-.84q-8.64,0-13.92,4a12.66,12.66,0,0,0-5.28,10.68v35a6.15,6.15,0,0,1-1.5,4.44,6,6,0,0,1-4.5,1.56,6.15,6.15,0,0,1-4.44-1.5,6,6,0,0,1-1.56-4.5V62.63a5.44,5.44,0,0,1,6-6q6,0,6,6v2.28a25.32,25.32,0,0,1,8.88-6.6,26.94,26.94,0,0,1,11.28-2.4Q504.63,55.91,508.23,57.83Z"/><path class="cls-1" d="M566.55,57.83q3.6,1.92,3.6,4.8a4.21,4.21,0,0,1-.12,1.2q-1.08,3.84-4.8,3.84a10.11,10.11,0,0,1-1.8-.24,47.3,47.3,0,0,0-7.8-.84q-8.64,0-13.92,4a12.66,12.66,0,0,0-5.28,10.68v35a6.15,6.15,0,0,1-1.5,4.44,6,6,0,0,1-4.5,1.56,6.15,6.15,0,0,1-4.44-1.5,6,6,0,0,1-1.56-4.5V62.63a5.44,5.44,0,0,1,6-6q6,0,6,6v2.28a25.32,25.32,0,0,1,8.88-6.6,26.94,26.94,0,0,1,11.28-2.4Q563,55.91,566.55,57.83Z"/><path class="cls-1" d="M636.63,61.91a7.56,7.56,0,0,1-.72,2.88l-36.72,82.56q-1.44,3.72-4.68,3.72a7.56,7.56,0,0,1-2.88-.72q-3.6-1.56-3.6-4.68a6.39,6.39,0,0,1,.72-2.88l12-27-27-51.24a5.11,5.11,0,0,1-.6-2.52,4.79,4.79,0,0,1,1-2.88,6.33,6.33,0,0,1,2.52-2,5.85,5.85,0,0,1,2.4-.48,5.38,5.38,0,0,1,5,3.36l22,43.68,19.32-43.56q1.56-3.48,4.68-3.48a6.88,6.88,0,0,1,2.88.6Q636.63,58.67,636.63,61.91Z"/><circle class="cls-1" cx="343.39" cy="91.1" r="27.39"/></g></g></svg>