<svg xmlns="http://www.w3.org/2000/svg" viewBox="0 0 647.16 155.39"><defs><style>.cls-1,.cls-7{fill:#d31e1e;}.cls-2{fill:#7aaf00;}.cls-3{fill:#589b00;}.cls-4{fill:#5dad00;}.cls-5{fill:#e83636;}.cls-6{fill:none;stroke:#d31e1e;stroke-miterlimit:10;stroke-width:4px;}.cls-7{font-size:120px;font-family:Comfortaa-Bold, Comfortaa;font-weight:700;}</style></defs><title>Fichier 20</title><g id="Calque_2" data-name="Calque 2"><g id="berries_down"><circle class="cls-1" cx="26.08" cy="93.93" r="26.08"/><circle class="cls-1" cx="57.83" cy="75.03" r="26.08"/><circle class="cls-1" cx="93.5" cy="47.46" r="25.58"/></g><g id="leaves"><path class="cls-2" d="M37,89.71S60.32,78.26,73.22,66.83s25.75-27,34.47-33.4,27.09-11.38,27.09-11.38l0,6.41s-2.76.74-6.49,2.05c-5.32,1.87-14.59,2.91-18.6,6.66-6.83,6.39-25.17,25.25-32.93,32C60.85,82.83,40.49,93.76,40.49,93.76Z"/><path class="cls-2" d="M118.38,33.55c6.36-7.93,34.2,11.85,44.25,20.53S178.84,77.22,176,81.32,160.58,82.75,148.17,75C135.26,66,112.36,41.08,118.38,33.55Z"/><path class="cls-3" d="M125.65,34c32-6,54-5.29,62.28,0S200,45.16,197.37,51.1s-5.29,5.75-5.29,5.75-5.29-5.81-20-11.51S125.65,34,125.65,34Z"/><path class="cls-4" d="M118.21,27.07c3-10.52,26.07-25.73,35.53-26.75,17.38-1.89,30.37,4.67,37.17,20,2.12,4.78-12.28,2.34-22.57,4.75-8,1.88-21.65,6.62-33.06,7.75S115.18,37.59,118.21,27.07Z"/></g><g id="berries_up"><circle class="cls-5" cx="96.09" cy="80.89" r="26.08"/><circle class="cls-5" cx="60.28" cy="106.97" r="26.08"/></g><g id="Arrows"><path class="cls-6" d="M79.28,21.88C60.74,6.75,44,23.05,46,40.67"/><polygon class="cls-1" points="39.99 40.42 48.37 48.95 51.57 37.42 39.99 40.42"/><path class="cls-6" d="M41.57,48.88C30.48,33.27,7.88,45.31,8.2,61.44"/><polygon class="cls-1" points="2.31 60.99 10.45 69.77 13.98 58.33 2.31 60.99"/></g><g id="Title_wide" data-name="Title wide"><text class="cls-7" transform="translate(202.12 122.27)">rlberry</text><circle class="cls-1" cx="343.39" cy="91.1" r="27.39"/></g></g></svg>