<svg xmlns="http://www.w3.org/2000/svg" viewBox="0 0 215.39 202.19">
    <defs>
        <style>
            .cls-1{fill:#d31e1e;}.cls-2{fill:#7aaf00;}.cls-3{fill:#589b00;}.cls-4{fill:#5dad00;}.cls-5{fill:#e83636;}.cls-6{fill:none;stroke:#d31e1e;stroke-miterlimit:10;stroke-width:4px;}
        </style>
    </defs>
    <title>Fichier 22</title>
    <g id="Calque_2" data-name="Calque 2">
        <g id="berries_down">
            <circle class="cls-1" cx="38.97" cy="93.93" r="26.08"/>
            <circle class="cls-1" cx="70.72" cy="75.03" r="26.08"/>
            <circle class="cls-1" cx="106.4" cy="47.46" r="25.58"/>
        </g>
        <g id="leaves">
            <path class="cls-2"
                  d="M49.88,89.71S73.22,78.26,86.11,66.83s25.76-27,34.47-33.4,27.1-11.38,27.1-11.38l0,6.41s-2.76.74-6.49,2.05c-5.31,1.87-14.59,2.91-18.6,6.66-6.83,6.39-25.16,25.25-32.93,32C73.75,82.83,53.38,93.76,53.38,93.76Z"/>
            <path class="cls-2"
                  d="M131.28,33.55c6.35-7.93,34.19,11.85,44.24,20.53s16.21,23.14,13.36,27.24S173.47,82.75,161.06,75C148.15,66,125.25,41.08,131.28,33.55Z"/>
            <path class="cls-3"
                  d="M138.54,34c32-6,54-5.29,62.28,0s12.09,11.19,9.45,17.13S205,56.85,205,56.85s-5.3-5.81-20-11.51S138.54,34,138.54,34Z"/>
            <path class="cls-4"
                  d="M131.1,27.07c3-10.52,26.07-25.73,35.53-26.75C184-1.57,197,5,203.8,20.32c2.12,4.78-12.28,2.34-22.57,4.75-8,1.88-21.65,6.62-33,7.75S128.08,37.59,131.1,27.07Z"/>
        </g>
        <g id="berries_up">
            <circle class="cls-5" cx="108.99" cy="80.89" r="26.08"/>
            <circle class="cls-5" cx="73.18" cy="106.97" r="26.08"/>
        </g>
        <g id="Arrows">
            <path class="cls-6" d="M92.17,21.88C73.63,6.75,56.93,23.05,58.9,40.67"/>
            <polygon class="cls-1" points="52.88 40.42 61.27 48.95 64.46 37.42 52.88 40.42"/>
            <path class="cls-6" d="M54.47,48.88C43.38,33.27,20.77,45.31,21.1,61.44"/>
            <polygon class="cls-1" points="15.21 60.99 23.34 69.77 26.88 58.33 15.21 60.99"/>
        </g>
        <g id="Title_below" data-name="Title below">
            <path class="cls-1"
                  d="M21.41,154.79a2.84,2.84,0,0,1,1.83,2.44,2.14,2.14,0,0,1-.06.61,2.36,2.36,0,0,1-2.44,1.95,5.34,5.34,0,0,1-.92-.12,24.46,24.46,0,0,0-4-.43,11.52,11.52,0,0,0-7.08,2,6.43,6.43,0,0,0-2.68,5.43V184.5a3.14,3.14,0,0,1-.76,2.26,3.07,3.07,0,0,1-2.29.79,3.13,3.13,0,0,1-2.26-.77A3,3,0,0,1,0,184.5V157.23A3.07,3.07,0,0,1,.79,155a3.09,3.09,0,0,1,2.26-.79,2.7,2.7,0,0,1,3.05,3v1.16A13,13,0,0,1,10.61,155a13.75,13.75,0,0,1,5.74-1.22A10.88,10.88,0,0,1,21.41,154.79Z"/>
            <path class="cls-1"
                  d="M32.85,186.11a9.3,9.3,0,0,1-3.27-4,14.18,14.18,0,0,1-1.15-5.83V143a3.05,3.05,0,1,1,6.1,0v33.3a7.26,7.26,0,0,0,.85,3.72,2.51,2.51,0,0,0,2.2,1.47H39.1a2.53,2.53,0,0,1,2,.85,3.17,3.17,0,0,1,.77,2.2,2.62,2.62,0,0,1-1.16,2.19,4.93,4.93,0,0,1-3,.86h-.12A8.18,8.18,0,0,1,32.85,186.11Z"/>
            <path class="cls-1"
                  d="M73.9,156.13a15.44,15.44,0,0,1,5.61,6.07,18.23,18.23,0,0,1,2,8.63,17.27,17.27,0,0,1-2.2,8.64,16.09,16.09,0,0,1-6.07,6.1,16.92,16.92,0,0,1-8.57,2.22,16.43,16.43,0,0,1-14.55-8.32,17.08,17.08,0,0,1-2.23-8.64V143a3,3,0,0,1,.89-2.26,3.07,3.07,0,0,1,2.23-.85A2.94,2.94,0,0,1,54.17,143v16.47a15.37,15.37,0,0,1,19.73-3.36Zm-3.66,24.68a10.67,10.67,0,0,0,3.9-4.12,12,12,0,0,0,1.44-5.86A11.79,11.79,0,0,0,74.14,165a10.73,10.73,0,0,0-3.9-4.09A10.64,10.64,0,0,0,55.33,165a12,12,0,0,0-1.41,5.82,12.17,12.17,0,0,0,1.41,5.86,10.76,10.76,0,0,0,14.91,4.12Z"/>
            <path class="cls-1"
                  d="M120,172.27a2.76,2.76,0,0,1-2,.76H94.79a10.71,10.71,0,0,0,3.88,6.89,12.31,12.31,0,0,0,11.65,2,11.16,11.16,0,0,0,3.26-1.64,3.14,3.14,0,0,1,2-.67,2.59,2.59,0,0,1,1.83.61,2.67,2.67,0,0,1,1.1,2.07,2.22,2.22,0,0,1-1,1.83,17,17,0,0,1-5.15,2.69,18.69,18.69,0,0,1-14.85-1.13,15.7,15.7,0,0,1-6.19-6,17,17,0,0,1-2.23-8.73,18.06,18.06,0,0,1,2.1-8.75,15.34,15.34,0,0,1,5.86-6,16.75,16.75,0,0,1,8.51-2.16A15.35,15.35,0,0,1,113.7,156a13.67,13.67,0,0,1,5.25,5.8,19.09,19.09,0,0,1,1.83,8.54A2.56,2.56,0,0,1,120,172.27ZM98.36,161.62a11,11,0,0,0-3.51,6.53h20.32a10.91,10.91,0,0,0-3-6.53,9,9,0,0,0-6.53-2.44A10.58,10.58,0,0,0,98.36,161.62Z"/>
            <path class="cls-1"
                  d="M150.12,154.79a2.84,2.84,0,0,1,1.83,2.44,2.14,2.14,0,0,1-.06.61,2.36,2.36,0,0,1-2.44,1.95,5.23,5.23,0,0,1-.92-.12,24.68,24.68,0,0,0-4-.43,11.52,11.52,0,0,0-7.08,2,6.43,6.43,0,0,0-2.68,5.43V184.5a3.14,3.14,0,0,1-.77,2.26,3,3,0,0,1-2.28.79,3.13,3.13,0,0,1-2.26-.77,3,3,0,0,1-.79-2.28V157.23a2.76,2.76,0,0,1,3-3,2.7,2.7,0,0,1,3.05,3v1.16a13,13,0,0,1,4.51-3.36,13.75,13.75,0,0,1,5.74-1.22A10.88,10.88,0,0,1,150.12,154.79Z"/>
            <path class="cls-1"
                  d="M179.76,154.79a2.84,2.84,0,0,1,1.83,2.44,2.14,2.14,0,0,1-.06.61,2.36,2.36,0,0,1-2.44,1.95,5.14,5.14,0,0,1-.91-.12,24.67,24.67,0,0,0-4-.43,11.49,11.49,0,0,0-7.07,2,6.43,6.43,0,0,0-2.69,5.43V184.5a3.14,3.14,0,0,1-.76,2.26,3.69,3.69,0,0,1-4.54,0,3,3,0,0,1-.8-2.28V157.23a2.77,2.77,0,0,1,3.05-3c2,0,3,1,3,3v1.16A13,13,0,0,1,169,155a13.74,13.74,0,0,1,5.73-1.22A10.85,10.85,0,0,1,179.76,154.79Z"/>
            <path class="cls-1"
                  d="M215.39,156.86a3.76,3.76,0,0,1-.37,1.47l-18.67,42a2.49,2.49,0,0,1-2.37,1.89,3.76,3.76,0,0,1-1.47-.37,2.56,2.56,0,0,1-1.83-2.38,3.16,3.16,0,0,1,.37-1.46l6.1-13.73-13.73-26a2.66,2.66,0,0,1-.3-1.28,2.43,2.43,0,0,1,.49-1.47,3.18,3.18,0,0,1,1.28-1,2.83,2.83,0,0,1,1.22-.25,2.74,2.74,0,0,1,2.56,1.71l11.16,22.2L209.65,156a2.55,2.55,0,0,1,2.38-1.77,3.43,3.43,0,0,1,1.47.31A2.49,2.49,0,0,1,215.39,156.86Z"/>
            <ellipse class="cls-1" cx="66" cy="170.93" rx="13.36" ry="16.19"/>
        </g>
    </g>
</svg>